<?xml version="1.0" standalone="no"?>
<!DOCTYPE svg PUBLIC "-//W3C//DTD SVG 20010904//EN"
 "http://www.w3.org/TR/2001/REC-SVG-20010904/DTD/svg10.dtd">
<svg version="1.0" xmlns="http://www.w3.org/2000/svg"
 width="156.000000pt" height="158.000000pt" viewBox="0 0 156.000000 158.000000"
 preserveAspectRatio="xMidYMid meet">

<g transform="translate(0.000000,158.000000) scale(0.100000,-0.100000)"
fill="#000000" stroke="none">
<path d="M275 1442 c-116 -32 -149 -77 -148 -199 0 -73 22 -194 44 -248 4 -11
18 -45 30 -75 44 -113 116 -241 184 -330 55 -71 186 -201 239 -237 23 -15 43
-30 46 -33 6 -7 99 -63 120 -73 8 -4 35 -18 59 -32 24 -14 48 -25 54 -25 5 0
23 -6 40 -13 55 -24 101 -39 142 -47 22 -5 53 -13 68 -19 47 -18 193 -14 225
6 63 41 80 72 88 162 18 218 -13 306 -121 348 -32 13 -69 23 -80 23 -11 0 -48
9 -80 21 -91 32 -160 22 -217 -31 -24 -22 -49 -40 -56 -40 -43 0 -234 176
-273 253 l-21 39 29 32 c51 55 63 82 63 144 0 32 -5 63 -10 68 -6 6 -15 33
-20 60 -24 128 -35 156 -70 193 -63 65 -208 87 -335 53z m257 -120 c6 -6 19
-44 29 -84 10 -40 26 -96 35 -124 17 -50 17 -52 -4 -85 -12 -19 -39 -51 -62
-73 -57 -55 -56 -64 39 -191 52 -70 195 -212 222 -220 11 -4 19 -11 19 -16 0
-5 4 -9 10 -9 5 0 26 -11 46 -25 20 -14 45 -25 56 -25 10 0 44 25 75 55 49 47
62 55 95 55 21 0 53 -6 71 -14 18 -7 53 -16 77 -20 25 -4 61 -15 80 -24 l35
-17 3 -132 c2 -122 1 -134 -18 -153 -11 -11 -30 -20 -42 -20 -36 0 -232 41
-242 51 -6 5 -18 9 -29 9 -10 0 -60 20 -110 45 -285 138 -469 329 -612 635
-11 23 -20 54 -59 189 -19 65 -21 174 -3 189 22 18 50 21 165 18 68 -1 117 -7
124 -14z"/>
</g>
</svg>
