<?xml version="1.0" standalone="no"?>
<!DOCTYPE svg PUBLIC "-//W3C//DTD SVG 20010904//EN"
 "http://www.w3.org/TR/2001/REC-SVG-20010904/DTD/svg10.dtd">
<svg version="1.0" xmlns="http://www.w3.org/2000/svg"
 width="314.000000pt" height="372.000000pt" viewBox="0 0 314.000000 372.000000"
 preserveAspectRatio="xMidYMid meet">

<g transform="translate(0.000000,372.000000) scale(0.100000,-0.100000)"
fill="#000000" stroke="none">
<path d="M1350 3585 c-758 -113 -1302 -767 -1267 -1523 24 -517 314 -1026 895
-1574 171 -161 427 -363 505 -398 83 -38 134 -21 285 92 577 433 1013 970
1177 1446 92 270 110 575 49 827 -94 385 -323 708 -650 917 -282 180 -664 262
-994 213z m401 -360 c364 -63 684 -317 831 -657 60 -139 79 -230 85 -403 4
-117 2 -169 -11 -235 -70 -350 -278 -691 -656 -1071 -134 -136 -381 -352 -432
-380 -13 -7 -34 5 -93 52 -566 450 -939 960 -1020 1398 -19 106 -19 283 0 395
79 454 459 830 915 905 88 14 290 12 381 -4z"/>
<path d="M1400 2714 c-139 -36 -265 -126 -346 -246 -167 -244 -137 -566 70
-772 122 -122 259 -179 431 -180 170 0 308 57 431 179 327 326 186 878 -260
1014 -82 25 -241 28 -326 5z m266 -362 c46 -24 94 -73 120 -122 26 -50 26
-162 -1 -215 -77 -156 -282 -193 -404 -73 -55 54 -75 104 -75 183 0 118 67
208 184 246 40 13 133 3 176 -19z"/>
</g>
</svg>
