<?xml version="1.0" standalone="no"?>
<!DOCTYPE svg PUBLIC "-//W3C//DTD SVG 20010904//EN"
 "http://www.w3.org/TR/2001/REC-SVG-20010904/DTD/svg10.dtd">
<svg version="1.0" xmlns="http://www.w3.org/2000/svg"
 width="348.000000pt" height="322.000000pt" viewBox="0 0 348.000000 322.000000"
 preserveAspectRatio="xMidYMid meet">

<g transform="translate(0.000000,322.000000) scale(0.100000,-0.100000)"
fill="#000000" stroke="none">
<path d="M1646 3089 c-161 -22 -303 -94 -427 -218 -208 -208 -274 -485 -184
-769 35 -109 88 -194 180 -288 91 -92 181 -149 300 -191 74 -26 91 -28 235
-28 144 0 161 2 235 28 115 40 209 100 296 186 203 203 272 491 185 767 -37
116 -89 197 -191 299 -76 77 -104 98 -185 137 -147 71 -295 97 -444 77z m268
-387 c82 -38 145 -96 184 -170 130 -244 -11 -533 -286 -584 -159 -29 -342 62
-415 208 -98 197 -27 432 162 532 78 42 122 52 213 48 61 -3 92 -11 142 -34z"/>
<path d="M995 1345 c-250 -61 -456 -252 -541 -500 -27 -79 -28 -84 -28 -336
l-1 -255 29 -38 c32 -42 95 -76 141 -76 66 0 145 59 169 125 4 11 7 91 6 177
-1 256 24 347 123 447 59 60 128 96 209 111 37 7 276 10 685 8 l628 -3 58 -23
c79 -32 168 -116 208 -197 38 -78 48 -152 49 -353 0 -170 8 -201 59 -245 48
-40 101 -53 154 -37 59 17 94 45 118 92 20 39 21 53 16 282 -4 224 -6 246 -29
316 -68 202 -210 363 -402 455 -138 66 -131 65 -904 64 -517 -1 -710 -4 -747
-14z"/>
</g>
</svg>
