<?xml version="1.0" standalone="no"?>
<!DOCTYPE svg PUBLIC "-//W3C//DTD SVG 20010904//EN"
 "http://www.w3.org/TR/2001/REC-SVG-20010904/DTD/svg10.dtd">
<svg version="1.0" xmlns="http://www.w3.org/2000/svg"
 width="156.000000pt" height="112.000000pt" viewBox="0 0 156.000000 112.000000"
 preserveAspectRatio="xMidYMid meet">

<g transform="translate(0.000000,112.000000) scale(0.100000,-0.100000)"
fill="#000000" stroke="none">
<path d="M87 1062 c-57 -35 -43 -87 26 -97 23 -3 334 -5 690 -3 l648 3 19 24
c19 26 17 44 -8 74 -14 16 -59 17 -681 16 -602 -1 -669 -2 -694 -17z"/>
<path d="M73 625 c-25 -18 -30 -52 -11 -78 14 -18 60 -19 945 -18 l452 1 15
27 c19 37 3 70 -38 76 -17 3 -326 6 -686 7 -586 1 -657 -1 -677 -15z"/>
<path d="M61 174 c-15 -19 -18 -31 -11 -43 25 -47 3 -46 716 -49 l673 -4 26
26 c19 19 24 32 20 49 -15 48 3 47 -721 47 l-683 0 -20 -26z"/>
</g>
</svg>
