<svg width="390" height="536" viewBox="0 0 390 536" fill="none" xmlns="http://www.w3.org/2000/svg">
<path d="M181.188 0.832209C164.788 3.36554 145.721 13.3655 134.388 25.3655C126.121 34.1655 119.055 46.4322 115.188 58.4322L111.988 68.6989L111.721 166.432C111.455 276.432 111.321 274.032 121.321 292.832C131.055 310.966 148.388 325.366 168.521 332.299C177.588 335.366 181.455 335.899 193.855 336.032C218.921 336.166 235.188 329.499 252.521 312.166C264.788 299.899 270.655 290.032 274.521 274.699C277.055 264.966 277.188 259.632 277.188 167.632C277.188 60.0322 277.455 63.3655 268.121 44.8322C262.121 32.5655 249.055 18.4322 238.121 12.0322C221.855 2.43221 199.321 -1.96779 181.188 0.832209Z" fill="#5F5F5F"/>
<path d="M17.4547 257.232C11.0547 259.632 3.85467 265.899 1.72133 270.966C-5.612 288.566 11.3213 338.432 36.6547 372.832C45.4547 384.832 65.188 403.899 78.9213 413.766C101.055 429.366 129.321 441.632 155.855 447.232L167.188 449.499L167.855 484.299C168.521 515.499 168.788 519.366 171.055 522.832C176.788 531.766 184.388 535.899 194.655 535.899C203.988 535.899 212.788 531.232 217.455 523.899C220.388 518.966 220.521 517.632 221.188 484.166L221.855 449.499L233.188 447.232C292.121 435.099 344.521 395.499 370.788 342.832C377.055 330.566 384.388 310.432 387.188 298.832C391.455 280.432 389.721 270.432 380.788 262.832C371.855 255.232 361.855 253.632 351.321 258.166C342.655 261.766 338.388 269.232 334.655 286.299C327.988 317.766 308.521 348.166 282.521 367.499C265.055 380.299 242.788 390.299 221.321 394.966C209.455 397.366 179.988 397.366 167.855 394.832C130.788 387.099 100.388 368.299 79.7213 340.566C65.588 321.499 57.988 305.366 53.188 283.499C51.4547 275.766 49.0547 268.832 47.0547 265.899C40.9213 257.099 28.2547 253.366 17.4547 257.232Z" fill="#5F5F5F"/>
</svg>
