<?xml version="1.0" standalone="no"?>
<!DOCTYPE svg PUBLIC "-//W3C//DTD SVG 20010904//EN"
 "http://www.w3.org/TR/2001/REC-SVG-20010904/DTD/svg10.dtd">
<svg version="1.0" xmlns="http://www.w3.org/2000/svg"
 width="348.000000pt" height="322.000000pt" viewBox="0 0 348.000000 322.000000"
 preserveAspectRatio="xMidYMid meet">

<g transform="translate(0.000000,322.000000) scale(0.100000,-0.100000)"
fill="#000000" stroke="none">
<path d="M851 3085 c-214 -48 -371 -134 -512 -282 -114 -118 -184 -241 -236
-408 -25 -84 -27 -102 -27 -265 0 -161 3 -182 27 -263 30 -98 77 -198 133
-284 48 -74 1384 -1417 1436 -1444 44 -22 106 -25 151 -5 44 19 1403 1385
1449 1456 113 175 162 340 162 545 1 372 -205 702 -539 865 -141 69 -224 90
-380 97 -286 12 -487 -61 -722 -263 l-42 -36 -58 52 c-113 100 -242 172 -390
216 -74 22 -111 27 -238 30 -106 3 -169 -1 -214 -11z m359 -361 c104 -29 169
-73 302 -201 221 -215 253 -216 467 -10 111 108 150 139 211 169 99 48 165 62
280 62 178 -1 301 -53 431 -183 130 -130 188 -285 176 -470 -8 -115 -37 -205
-97 -293 -35 -52 -216 -240 -637 -661 l-588 -587 -616 617 c-659 662 -653 655
-695 798 -23 81 -23 249 0 330 69 235 272 413 506 446 72 10 191 2 260 -17z"/>
</g>
</svg>
