<?xml version="1.0" standalone="no"?>
<!DOCTYPE svg PUBLIC "-//W3C//DTD SVG 20010904//EN"
 "http://www.w3.org/TR/2001/REC-SVG-20010904/DTD/svg10.dtd">
<svg version="1.0" xmlns="http://www.w3.org/2000/svg"
 width="104.000000pt" height="104.000000pt" viewBox="0 0 104.000000 104.000000"
 preserveAspectRatio="xMidYMid meet">

<g transform="translate(0.000000,104.000000) scale(0.100000,-0.100000)"
fill="#000000" stroke="none">
<path d="M359 926 c-187 -50 -302 -242 -255 -426 41 -159 159 -258 319 -268
89 -5 147 8 212 49 27 17 45 24 45 16 0 -7 52 -64 115 -127 l115 -115 32 33
33 32 -115 115 c-63 63 -120 115 -127 115 -9 0 -5 13 11 38 38 57 56 118 56
191 0 82 -11 122 -52 191 -77 128 -244 195 -389 156z m197 -91 c50 -21 115
-85 140 -140 65 -139 -9 -320 -151 -368 -254 -87 -468 181 -325 406 67 106
217 152 336 102z"/>
</g>
</svg>
