<svg width="414" height="403" viewBox="0 0 414 403" fill="none" xmlns="http://www.w3.org/2000/svg">
<path d="M139.333 10.0001C34.8001 23.3335 -19.3333 142.133 39.2001 229.867C47.4667 242.267 63.4667 258.533 75.7334 267.2C108.4 290.133 149.867 298.133 188.8 289.2C200.933 286.533 217.333 280.267 226.933 274.933L233.333 271.333L294.267 332.4C327.867 365.867 356 393.333 356.667 393.333C358.8 393.333 395.067 356.533 394.533 354.8C394.267 354 367.2 326.533 334.4 293.6C301.467 260.667 274.667 233.2 274.667 232.4C274.667 231.6 277.067 226.933 280 222.133C292.8 201.067 299.067 177.6 298.933 150.667C298.667 76.9335 244.667 17.4668 170.933 9.46681C155.333 7.73348 157.067 7.73348 139.333 10.0001ZM177.6 63.3335C195.733 67.0668 216.4 80.1335 228 95.4668C242 114 247.2 130.933 246.4 154.4C245.467 176.133 242.267 185.467 228.4 206.267C222.267 215.6 219.6 218.133 211.333 223.333C191.2 235.867 177.2 240.267 157.333 240.4C141.6 240.4 129.333 237.467 115.733 230.4C92.6667 218.533 75.0667 195.467 69.2001 170C66.9334 159.867 67.2001 139.333 69.8667 129.333C74.8001 109.867 87.2001 91.2001 103.067 79.2001C125.067 62.6668 148.8 57.6001 177.6 63.3335Z" fill="#5F5F5F"/>
</svg>
