<?xml version="1.0" standalone="no"?>
<!DOCTYPE svg PUBLIC "-//W3C//DTD SVG 20010904//EN"
 "http://www.w3.org/TR/2001/REC-SVG-20010904/DTD/svg10.dtd">
<svg version="1.0" xmlns="http://www.w3.org/2000/svg"
 width="488.000000pt" height="188.000000pt" viewBox="0 0 488.000000 188.000000"
 preserveAspectRatio="xMidYMid meet">

<g transform="translate(0.000000,188.000000) scale(0.100000,-0.100000)"
fill="#000000" stroke="none">
<path d="M1275 1793 c8 -21 102 -256 209 -523 l194 -485 80 -3 79 -3 211 523
211 523 -71 3 c-44 2 -74 -1 -78 -8 -4 -6 -83 -206 -176 -445 -93 -239 -171
-435 -174 -435 -3 0 -52 120 -109 268 -57 147 -135 347 -173 445 l-70 177 -74
0 -74 0 15 -37z"/>
<path d="M56 1789 c-10 -50 -7 -256 5 -354 40 -326 175 -557 389 -664 99 -49
115 -49 216 1 128 64 241 194 309 358 50 120 76 258 82 446 3 94 3 187 -1 207
l-7 37 -493 0 -493 0 -7 -31z m948 -179 c-1 -162 -16 -272 -55 -391 -61 -188
-169 -328 -310 -398 -64 -32 -85 -38 -104 -31 -74 28 -138 71 -201 134 -120
120 -197 309 -223 549 -12 106 -15 256 -5 281 6 15 52 16 453 14 l446 -3 -1
-155z"/>
<path d="M569 1397 l-387 -90 15 -51 c22 -77 53 -145 93 -208 l36 -58 309 241
c304 236 334 260 325 258 -3 -1 -179 -42 -391 -92z"/>
<path d="M3710 1700 l0 -90 -60 0 -60 0 0 -55 0 -55 59 0 60 0 3 -312 c3 -294
4 -315 23 -348 12 -19 36 -43 55 -54 62 -37 217 -22 245 23 4 8 -22 91 -30 91
-1 0 -17 -7 -35 -16 -49 -25 -100 -10 -122 36 -16 31 -18 68 -18 308 l0 272
95 0 95 0 0 55 0 55 -95 0 -95 0 0 90 0 90 -60 0 -60 0 0 -90z"/>
<path d="M2480 1614 c-249 -67 -372 -372 -252 -627 75 -160 255 -247 450 -218
83 12 185 56 221 95 l24 26 -28 40 -28 40 -32 -29 c-82 -72 -249 -98 -346 -54
-91 41 -167 142 -172 230 l-2 38 333 3 332 2 0 53 c0 279 -240 471 -500 401z
m191 -100 c75 -22 151 -100 174 -178 29 -98 48 -91 -260 -91 l-270 0 2 40 c6
94 91 202 183 230 60 18 106 18 171 -1z"/>
<path d="M3090 1195 l0 -415 60 0 60 0 0 297 0 297 48 46 c49 47 94 66 182 77
l50 6 0 54 0 54 -47 -6 c-66 -10 -141 -45 -187 -88 -21 -20 -40 -37 -42 -37
-2 0 -4 29 -4 65 l0 65 -60 0 -60 0 0 -415z"/>
<path d="M4132 1263 l3 -348 25 -43 c79 -138 333 -144 483 -12 19 16 37 30 41
30 3 0 6 -25 6 -55 l0 -55 60 0 60 0 0 415 0 415 -60 0 -60 0 0 -306 0 -307
-37 -35 c-61 -57 -136 -87 -218 -87 -82 0 -128 21 -160 75 -19 33 -20 54 -23
348 l-3 312 -60 0 -60 0 3 -347z"/>
<path d="M1820 300 l0 -210 35 0 34 0 3 137 3 138 55 -135 c74 -182 78 -183
150 -5 l55 135 3 -135 3 -135 34 0 35 0 0 210 0 210 -43 0 -43 0 -58 -140
c-32 -77 -60 -140 -61 -140 -1 0 -28 63 -60 140 l-57 140 -44 0 -44 0 0 -210z"/>
<path d="M3030 440 c0 -36 -2 -40 -25 -40 -21 0 -25 -5 -25 -30 0 -25 4 -30
25 -30 l25 0 0 -110 c0 -97 2 -112 20 -130 22 -22 57 -26 94 -9 22 10 23 14
14 41 -8 23 -13 26 -24 17 -8 -6 -21 -9 -29 -5 -12 4 -15 25 -15 101 l0 95 30
0 c27 0 30 3 30 30 0 27 -3 30 -30 30 -28 0 -30 2 -30 40 0 38 -2 40 -30 40
-28 0 -30 -2 -30 -40z"/>
<path d="M2543 380 c-90 -55 -90 -207 0 -274 39 -29 125 -29 163 0 44 32 66
68 71 116 7 60 -24 130 -69 158 -44 26 -122 27 -165 0z m137 -60 c58 -58 21
-180 -55 -180 -76 0 -113 122 -55 180 26 26 84 26 110 0z"/>
<path d="M3433 380 c-88 -53 -89 -207 -2 -272 69 -52 180 -23 218 56 12 23 21
58 21 77 -1 51 -34 116 -72 139 -44 26 -122 27 -165 0z m137 -58 c16 -13 24
-32 28 -70 4 -47 2 -54 -26 -82 -36 -35 -69 -38 -105 -10 -28 22 -43 74 -33
113 15 61 88 88 136 49z"/>
<path d="M3910 245 l0 -155 30 0 30 0 0 104 c0 101 1 105 26 125 15 12 37 21
50 21 20 0 24 5 24 30 0 34 -19 39 -66 18 -22 -10 -28 -10 -32 0 -2 6 -17 12
-33 12 l-29 0 0 -155z"/>
<path d="M4325 388 c-32 -17 -45 -39 -45 -78 0 -47 21 -66 96 -90 65 -20 85
-40 65 -64 -19 -22 -70 -20 -110 5 -33 20 -35 20 -48 3 -21 -29 -15 -41 30
-63 104 -50 220 4 203 94 -8 42 -33 60 -113 84 -67 20 -79 48 -30 66 23 8 36
5 69 -13 39 -21 42 -21 54 -4 19 25 18 30 -18 52 -37 22 -120 27 -153 8z"/>
</g>
</svg>
